<svg width="19" height="18" viewBox="0 0 19 18" fill="none" xmlns="http://www.w3.org/2000/svg">
<path fill-rule="evenodd" clip-rule="evenodd" d="M0.44577 9.13214C0.44577 5.58672 0.44577 3.814 1.29062 2.53717C1.66788 1.967 2.15618 1.4787 2.72635 1.10144C4.00318 0.256592 5.77589 0.256592 9.32132 0.256592C12.8667 0.256592 14.6395 0.256592 15.9163 1.10144C16.4865 1.4787 16.9748 1.967 17.352 2.53717C18.1969 3.814 18.1969 5.58672 18.1969 9.13214C18.1969 12.6776 18.1969 14.4503 17.352 15.7271C16.9748 16.2973 16.4865 16.7856 15.9163 17.1628C14.6395 18.0077 12.8667 18.0077 9.32132 18.0077C5.77589 18.0077 4.00318 18.0077 2.72635 17.1628C2.15618 16.7856 1.66788 16.2973 1.29062 15.7271C0.44577 14.4503 0.44577 12.6776 0.44577 9.13214ZM13.9158 9.13216C13.9158 11.6699 11.8586 13.7271 9.32085 13.7271C6.78311 13.7271 4.72587 11.6699 4.72587 9.13216C4.72587 6.59442 6.78311 4.53718 9.32085 4.53718C11.8586 4.53718 13.9158 6.59442 13.9158 9.13216ZM9.32085 12.1725C11 12.1725 12.3612 10.8113 12.3612 9.13216C12.3612 7.45301 11 6.09179 9.32085 6.09179C7.6417 6.09179 6.28048 7.45301 6.28048 9.13216C6.28048 10.8113 7.6417 12.1725 9.32085 12.1725ZM14.0978 5.38648C14.6943 5.38648 15.1778 4.90295 15.1778 4.30647C15.1778 3.70999 14.6943 3.22646 14.0978 3.22646C13.5013 3.22646 13.0178 3.70999 13.0178 4.30647C13.0178 4.90295 13.5013 5.38648 14.0978 5.38648Z" fill="#F95F9F"/>
</svg>
