<svg width="40" height="34" viewBox="0 0 40 34" fill="none" xmlns="http://www.w3.org/2000/svg">
<path d="M11.2136 8.95614C6.85089 7.21474 1.20504 5.8766 0.820097 6.81146C0.453485 7.76466 5.4761 10.6426 9.83878 12.384C10.2421 12.5489 10.627 12.6956 11.0119 12.8422C11.2319 13.4471 11.7085 14.7303 12.3134 16.3434C12.2951 16.3434 12.2951 16.3067 12.2584 16.2884L11.0852 15.8301C10.9386 15.7751 10.7736 15.8668 10.7003 16.0318L10.2421 17.1683C10.1687 17.3332 10.242 17.5165 10.3887 17.5715L11.5619 18.0298C11.5619 18.0298 11.6901 18.0298 11.7635 18.0298L13.12 18.5797C13.6332 19.9545 14.1831 21.4576 14.733 22.9241L13.5782 22.4658C13.4316 22.4108 13.2666 22.5025 13.1933 22.6674L12.735 23.8039C12.6617 23.9689 12.735 24.1522 12.8817 24.2072L14.0548 24.6655C14.0548 24.6655 14.1831 24.6655 14.2565 24.6655L15.5763 25.1971C16.9877 28.9548 18.1792 32.0894 18.2525 32.1627C18.4542 32.3643 20.2139 32.9876 20.2139 32.9876C20.6172 33.1525 20.9654 33.2442 20.9838 33.1892C20.9838 33.1525 20.5622 32.9326 20.1772 32.7676L18.8941 25.1421C19.2241 25.2521 19.499 25.2704 19.5173 25.1971C19.554 25.0871 19.2607 24.8854 18.8574 24.7205H18.8208L18.5642 23.199C18.8758 23.2907 19.1324 23.3273 19.1691 23.2357C19.2057 23.1257 18.9124 22.9241 18.5092 22.7591L18.2709 21.3843L18.3808 20.4311C18.7475 20.5594 19.0774 20.6144 19.1141 20.5044C19.1507 20.3944 18.8574 20.1928 18.4541 20.0278H18.4358L18.6374 18.1031C19.0041 18.2314 19.3157 18.2681 19.3524 18.1764C19.389 18.0665 19.0957 17.8648 18.6924 17.6998H18.6741L18.8574 15.9401C21.8086 17.0766 22.9818 17.4982 25.1448 18.3597C27.3262 19.2213 29.4892 19.8995 31.3589 20.3944C32.1288 22.4291 33.6319 26.5169 33.6319 26.5169L34.8234 27.1034L35.6482 21.2926C36.0699 21.3476 36.4181 21.366 36.6748 21.366C37.6096 21.6593 38.1962 21.8059 38.2329 21.7326C38.2695 21.6409 37.7563 21.3476 36.9131 20.9444C36.7298 20.7794 36.4365 20.5594 36.0332 20.3028L39.4427 15.4635L38.1779 15.0786C38.1779 15.0786 34.0351 17.1499 32.1471 18.0665C30.5157 17.1866 28.591 16.2151 26.5563 15.2252C23.8434 14.1437 22.6702 13.6488 20.1956 12.6223L21.2588 11.2291C21.662 11.3941 22.0286 11.4491 22.0653 11.3391C22.1019 11.2475 21.8453 11.0642 21.4787 10.8992L22.6519 9.35942H22.6702C23.0735 9.52439 23.4401 9.57938 23.4768 9.4694C23.5134 9.37775 23.2568 9.17611 22.8902 9.02947L23.4768 8.25958L24.5949 7.41637C24.9982 7.58135 25.3648 7.63634 25.4014 7.52636C25.4381 7.4347 25.2365 7.28806 24.9432 7.14141L26.1714 6.22488H26.208C26.6113 6.40819 26.9779 6.44485 27.0145 6.3532C27.0512 6.26155 26.8313 6.09657 26.5196 5.94993L32.697 1.29395C33.082 1.4406 33.5585 1.58724 33.5769 1.55058C33.5952 1.49559 33.2836 1.33061 32.8804 1.16564C32.8804 1.16564 31.1939 0.395752 30.9006 0.395752C30.7906 0.395752 27.7661 1.8622 24.1733 3.62194L22.8535 3.09035C22.8535 3.09035 22.7802 2.96204 22.7252 2.94371L21.552 2.48544C21.4054 2.43045 21.2404 2.5221 21.1671 2.68708L20.7088 3.82358C20.6355 3.98855 20.7088 4.17186 20.8555 4.22685L22.0103 4.68511C20.5988 5.38168 19.169 6.07824 17.8492 6.73814L16.4928 6.18822C16.4928 6.18822 16.4195 6.05991 16.3645 6.04158L15.1913 5.58331C15.0446 5.52832 14.8797 5.61997 14.8064 5.78495L14.3481 6.92145C14.2748 7.08642 14.3481 7.26973 14.4948 7.32472L15.6679 7.78299C15.6679 7.78299 15.7229 7.78299 15.7412 7.78299C14.2198 8.53454 13.01 9.13945 12.4234 9.43274C12.0385 9.2861 11.6535 9.12112 11.2502 8.95614H11.2136Z" fill="#F85E9F"/>
</svg>
