<svg width="21" height="21" viewBox="0 0 21 21" fill="none" xmlns="http://www.w3.org/2000/svg">
<path d="M12.6918 17.9012L12.7008 17.9074C13.477 18.4016 14.3985 18.6162 15.3132 18.5158C16.2278 18.4154 17.0808 18.0059 17.7312 17.355L18.2962 16.79C18.4214 16.6648 18.5208 16.5163 18.5885 16.3527C18.6563 16.1892 18.6912 16.0139 18.6912 15.8369C18.6912 15.6599 18.6563 15.4846 18.5885 15.3211C18.5208 15.1575 18.4214 15.0089 18.2962 14.8838L15.9131 12.5025C15.788 12.3773 15.6394 12.2779 15.4758 12.2102C15.3123 12.1424 15.137 12.1075 14.96 12.1075C14.783 12.1075 14.6077 12.1424 14.4442 12.2102C14.2806 12.2779 14.1321 12.3773 14.0069 12.5025C13.7542 12.7551 13.4116 12.897 13.0543 12.897C12.697 12.897 12.3543 12.7551 12.1017 12.5025L8.29115 8.69104C8.03854 8.43836 7.89664 8.0957 7.89664 7.73841C7.89664 7.38112 8.03854 7.03846 8.29115 6.78578C8.41636 6.66065 8.51568 6.51207 8.58345 6.34854C8.65122 6.185 8.6861 6.00972 8.6861 5.8327C8.6861 5.65568 8.65122 5.4804 8.58345 5.31686C8.51568 5.15333 8.41636 5.00475 8.29115 4.87962L5.90889 2.49827C5.65621 2.24566 5.31355 2.10376 4.95626 2.10376C4.59897 2.10376 4.25631 2.24566 4.00363 2.49827L3.43771 3.06329C2.78699 3.71381 2.37767 4.56686 2.27738 5.4815C2.1771 6.39614 2.39186 7.31762 2.88617 8.09368L2.89156 8.10267C5.50213 11.9651 8.82893 15.2913 12.6918 17.9012V17.9012Z" stroke="#170F49" stroke-width="1.38064" stroke-linecap="round" stroke-linejoin="round"/>
</svg>
