<svg width="19" height="15" viewBox="0 0 19 15" fill="none" xmlns="http://www.w3.org/2000/svg">
<path d="M17.6895 3.20435V11.4224C17.6895 11.9673 17.473 12.4899 17.0877 12.8752C16.7024 13.2605 16.1799 13.477 15.635 13.477H3.30782C2.76293 13.477 2.24035 13.2605 1.85505 12.8752C1.46975 12.4899 1.2533 11.9673 1.2533 11.4224V3.20435" stroke="#170F49" stroke-width="1.38064" stroke-linecap="round" stroke-linejoin="round"/>
<path d="M17.6895 3.20443C17.6895 2.65953 17.473 2.13696 17.0877 1.75166C16.7024 1.36636 16.1799 1.1499 15.635 1.1499H3.30782C2.76293 1.1499 2.24035 1.36636 1.85505 1.75166C1.46975 2.13696 1.2533 2.65953 1.2533 3.20443L8.3825 7.6559C8.70903 7.85998 9.08634 7.96819 9.4714 7.96819C9.85646 7.96819 10.2338 7.85998 10.5603 7.6559L17.6895 3.20443Z" stroke="#170F49" stroke-width="1.38064" stroke-linecap="round" stroke-linejoin="round"/>
</svg>
