<svg width="19" height="19" viewBox="0 0 19 19" fill="none" xmlns="http://www.w3.org/2000/svg">
<path d="M0.878788 3.13617C0.878788 2.56694 1.07869 2.09733 1.47849 1.72735C1.87828 1.35735 2.39803 1.17236 3.03771 1.17236C3.66597 1.17236 4.17427 1.3545 4.56266 1.71881C4.96245 2.0945 5.16235 2.58402 5.16235 3.1874C5.16235 3.73385 4.96817 4.18921 4.57979 4.55352C4.18 4.92921 3.65454 5.11705 3.00344 5.11705H2.9863C2.35804 5.11705 1.84974 4.92921 1.46135 4.55352C1.07297 4.17784 0.878788 3.70538 0.878788 3.13617ZM1.10153 18.0782V6.67102H4.90534V18.0782H1.10153ZM7.01286 18.0782H10.8167V11.7086C10.8167 11.3101 10.8624 11.0028 10.9537 10.7865C11.1137 10.3994 11.3564 10.0721 11.6819 9.80457C12.0075 9.53703 12.4159 9.40327 12.907 9.40327C14.1864 9.40327 14.8261 10.2628 14.8261 11.9818V18.0782H18.6299V11.5378C18.6299 9.85295 18.2301 8.57506 17.4305 7.70415C16.6309 6.83325 15.5743 6.39779 14.2607 6.39779C12.7871 6.39779 11.6391 7.02963 10.8167 8.29329V8.32745H10.7995L10.8167 8.29329V6.67102H7.01286C7.0357 7.03531 7.04712 8.16805 7.04712 10.0693C7.04712 11.9704 7.0357 14.6401 7.01286 18.0782Z" fill="#F95F9F"/>
</svg>
