<svg width="21" height="21" viewBox="0 0 21 21" fill="none" xmlns="http://www.w3.org/2000/svg">
<rect width="19.7234" height="19.7234" transform="translate(0.609619 0.658203)" fill="white"/>
<path d="M17.2372 9.49052C17.2372 14.795 11.8042 18.0629 10.6752 18.6854C10.6126 18.7199 10.5423 18.738 10.4709 18.738C10.3995 18.738 10.3292 18.7199 10.2667 18.6854C9.13676 18.0629 3.70544 14.795 3.70544 9.49052C3.70544 5.26184 6.24265 2.30176 10.4713 2.30176C14.7 2.30176 17.2372 5.26184 17.2372 9.49052Z" stroke="#170F49" stroke-width="1.38064" stroke-linecap="round" stroke-linejoin="round"/>
<path d="M7.08844 9.06752C7.08844 9.96473 7.44486 10.8252 8.07928 11.4596C8.71371 12.094 9.57417 12.4505 10.4714 12.4505C11.3686 12.4505 12.2291 12.094 12.8635 11.4596C13.4979 10.8252 13.8543 9.96473 13.8543 9.06752C13.8543 8.1703 13.4979 7.30984 12.8635 6.67541C12.2291 6.04099 11.3686 5.68457 10.4714 5.68457C9.57417 5.68457 8.71371 6.04099 8.07928 6.67541C7.44486 7.30984 7.08844 8.1703 7.08844 9.06752V9.06752Z" stroke="#170F49" stroke-width="1.38064" stroke-linecap="round" stroke-linejoin="round"/>
</svg>
