<svg width="19" height="16" viewBox="0 0 19 16" fill="none" xmlns="http://www.w3.org/2000/svg">
<path d="M12.8735 0.934837V0.931641H13.7058L14.0099 0.992381C14.2127 1.03181 14.3968 1.08349 14.5622 1.14743C14.7276 1.21137 14.8876 1.28596 15.0424 1.37121C15.1971 1.45645 15.3374 1.54331 15.4633 1.63175C15.5882 1.71914 15.7002 1.81185 15.7995 1.90988C15.8976 2.00898 16.0508 2.03456 16.2588 1.9866C16.4669 1.93865 16.691 1.87204 16.9311 1.7868C17.1712 1.70156 17.4086 1.60565 17.6434 1.49908C17.8782 1.39252 18.0212 1.32485 18.0724 1.29608C18.1225 1.26626 18.1492 1.25027 18.1524 1.24813L18.1556 1.24333L18.1716 1.23534L18.1876 1.22735L18.2036 1.21936L18.2196 1.21137L18.2228 1.20657L18.2276 1.20337L18.2324 1.20018L18.2356 1.19538L18.2516 1.19059L18.2676 1.18739L18.2645 1.21137L18.2596 1.23534L18.2516 1.25932L18.2436 1.28329L18.2356 1.29928L18.2276 1.31526L18.2196 1.33924C18.2143 1.35522 18.209 1.37653 18.2036 1.40318C18.1983 1.42982 18.1476 1.53637 18.0516 1.72286C17.9555 1.90935 17.8355 2.09849 17.6914 2.2903C17.5474 2.48212 17.4182 2.62703 17.3041 2.72508C17.1888 2.82418 17.1125 2.89344 17.0752 2.93287C17.0378 2.97336 16.9925 3.01065 16.9391 3.04476L16.8591 3.09751L16.8431 3.1055L16.8271 3.1135L16.8239 3.11829L16.8191 3.12149L16.8143 3.12468L16.8111 3.12948L16.7951 3.13747L16.779 3.14546L16.7759 3.15026L16.771 3.15346L16.7662 3.15665L16.763 3.16145L16.7599 3.16624L16.755 3.16944L16.7502 3.17264L16.747 3.17743H16.8271L17.2752 3.08153C17.574 3.01759 17.8595 2.94034 18.1316 2.84975L18.5638 2.7059L18.6118 2.68991L18.6358 2.68192L18.6518 2.67393L18.6678 2.66594L18.6838 2.65794L18.6998 2.64995L18.7318 2.64516L18.7638 2.64196V2.67393L18.7558 2.67712L18.7478 2.68192L18.7447 2.68672L18.7398 2.68991L18.735 2.69311L18.7318 2.6979L18.7286 2.7027L18.7238 2.7059L18.719 2.70909L18.7158 2.71389L18.7126 2.71868L18.7078 2.72188L18.6998 2.73786L18.6918 2.75385L18.687 2.75705C18.6849 2.76024 18.6171 2.85081 18.4837 3.02878C18.3503 3.2078 18.2783 3.29837 18.2676 3.30051C18.257 3.30371 18.242 3.31969 18.2228 3.34846C18.2047 3.37829 18.0916 3.49712 17.8835 3.70491C17.6754 3.91271 17.4716 4.09758 17.2721 4.25957C17.0715 4.42261 16.9701 4.62294 16.9679 4.86058C16.9647 5.09715 16.9525 5.36463 16.9311 5.66299C16.9098 5.96137 16.8698 6.28371 16.8111 6.63004C16.7524 6.97637 16.6617 7.36798 16.539 7.80488C16.4162 8.24178 16.2668 8.66803 16.0908 9.08363C15.9147 9.49922 15.7306 9.87218 15.5386 10.2025C15.3465 10.5329 15.1704 10.8126 15.0103 11.0417C14.8503 11.2708 14.6876 11.4866 14.5221 11.6891C14.3568 11.8915 14.1476 12.1196 13.8947 12.3732C13.6407 12.6257 13.502 12.7643 13.4785 12.7888C13.454 12.8122 13.3494 12.8996 13.1648 13.0509C12.9813 13.2033 12.7839 13.3557 12.5726 13.5081C12.3624 13.6594 12.1692 13.7857 11.9931 13.8869C11.8171 13.9881 11.6047 14.1037 11.3561 14.2338C11.1085 14.3648 10.8407 14.4863 10.5526 14.5982C10.2644 14.7101 9.96032 14.814 9.64019 14.9099C9.32007 15.0058 9.01061 15.0804 8.71182 15.1337C8.41305 15.187 8.07424 15.2323 7.69542 15.2695L7.12719 15.3255V15.3335H6.08677V15.3255L5.95072 15.3175C5.86002 15.3122 5.78532 15.3068 5.72663 15.3015C5.66795 15.2962 5.44652 15.2669 5.06236 15.2136C4.67821 15.1603 4.37676 15.107 4.158 15.0538C3.93926 15.0005 3.61378 14.8992 3.18161 14.7501C2.74944 14.6009 2.37969 14.4501 2.07237 14.2977C1.76611 14.1464 1.57404 14.0505 1.49613 14.01C1.4193 13.9705 1.33287 13.9215 1.23683 13.8629L1.09277 13.775L1.08959 13.7702L1.08477 13.767L1.07997 13.7638L1.07677 13.759L1.06076 13.751L1.04475 13.743L1.04157 13.7382L1.03675 13.7351L1.03195 13.7319L1.02875 13.7271L1.02556 13.7223L1.02074 13.7191H1.01274V13.6871L1.02875 13.6903L1.04475 13.6951L1.11678 13.7031C1.1648 13.7084 1.29553 13.7164 1.50894 13.7271C1.72237 13.7377 1.94912 13.7377 2.18921 13.7271C2.42931 13.7164 2.67475 13.6924 2.92551 13.6551C3.17628 13.6178 3.4724 13.5539 3.81386 13.4633C4.15534 13.3727 4.46907 13.2651 4.75505 13.1404C5.03997 13.0147 5.24271 12.9209 5.3633 12.8591C5.4828 12.7984 5.66527 12.6854 5.9107 12.5202L6.27885 12.2725L6.28205 12.2677L6.28685 12.2645L6.29167 12.2613L6.29485 12.2565L6.29806 12.2517L6.30286 12.2485L6.30768 12.2453L6.31086 12.2405L6.32687 12.2357L6.34287 12.2325L6.34608 12.2165L6.35088 12.2006L6.35569 12.1974L6.35888 12.1926L6.23083 12.1846C6.14547 12.1793 6.06276 12.1739 5.98273 12.1686C5.9027 12.1633 5.77732 12.1393 5.60658 12.0967C5.43585 12.054 5.25178 11.9901 5.05436 11.9049C4.85695 11.8196 4.66487 11.7184 4.47813 11.6011C4.2914 11.4839 4.1564 11.3864 4.07317 11.3086C3.991 11.2319 3.88429 11.1232 3.75304 10.9826C3.62286 10.8408 3.50974 10.6954 3.4137 10.5462C3.31766 10.397 3.2259 10.2249 3.13841 10.0299L3.00554 9.73898L2.99754 9.715L2.98953 9.69103L2.98473 9.67504L2.98153 9.65906L3.00554 9.66226L3.02955 9.66705L3.20562 9.69103C3.32301 9.70701 3.50708 9.71234 3.75784 9.70701C4.00861 9.70169 4.18201 9.69103 4.27805 9.67504C4.37409 9.65906 4.43278 9.6484 4.45412 9.64307L4.48613 9.63508L4.52615 9.62709L4.56616 9.6191L4.56936 9.6143L4.57417 9.61111L4.57898 9.60791L4.58217 9.60311L4.55016 9.59512L4.51814 9.58713L4.48613 9.57914L4.45412 9.57115L4.42211 9.56315C4.40077 9.55783 4.36343 9.54717 4.31006 9.53119C4.25671 9.5152 4.11265 9.45659 3.87789 9.35536C3.64314 9.25413 3.45639 9.15555 3.31766 9.05965C3.17859 8.96346 3.04599 8.85828 2.9207 8.74476C2.79585 8.62967 2.65874 8.48155 2.50934 8.3004C2.35995 8.11925 2.22657 7.90878 2.10918 7.66902C1.9918 7.42925 1.90377 7.20015 1.84507 6.98169C1.78661 6.76452 1.74805 6.54249 1.72984 6.31834L1.70102 5.98267L1.71702 5.98587L1.73303 5.99067L1.74904 5.99866L1.76504 6.00665L1.78105 6.01464L1.79705 6.02263L2.04515 6.13452C2.21056 6.20912 2.41597 6.27306 2.6614 6.32634C2.90684 6.37961 3.05356 6.40893 3.10158 6.41425L3.17361 6.42224H3.31766L3.31448 6.41745L3.30966 6.41425L3.30486 6.41105L3.30166 6.40626L3.29847 6.40146L3.29365 6.39827L3.28885 6.39507L3.28565 6.39027L3.26964 6.38228L3.25364 6.37429L3.25045 6.36949L3.24563 6.3663L3.24083 6.3631L3.23763 6.3583L3.22162 6.35031L3.20562 6.34232L3.20243 6.33753C3.19923 6.33538 3.15334 6.30129 3.06476 6.23523C2.97726 6.16809 2.88549 6.08125 2.78945 5.97468C2.69341 5.86811 2.59738 5.75623 2.50134 5.63901C2.40512 5.52153 2.31942 5.39584 2.24523 5.26338C2.17055 5.13018 2.09157 4.96073 2.00834 4.75508C1.92618 4.55048 1.86375 4.34429 1.82106 4.13649C1.77839 3.92869 1.75438 3.72357 1.74904 3.52109C1.74371 3.31862 1.74904 3.14546 1.76504 3.00161C1.78105 2.85775 1.81306 2.69523 1.86108 2.51408C1.9091 2.33293 1.97847 2.14112 2.06916 1.93865L2.20522 1.63495L2.21322 1.61097L2.22122 1.587L2.22604 1.5838L2.22923 1.579L2.23243 1.57421L2.23723 1.57101L2.24205 1.57421L2.24523 1.579L2.24844 1.5838L2.25324 1.587L2.25806 1.59019L2.26124 1.59499L2.26444 1.59978L2.26924 1.60298L2.27725 1.61896L2.28525 1.63495L2.29007 1.63815L2.29325 1.64294L2.50934 1.88271C2.6534 2.04255 2.82414 2.22104 3.02154 2.41818C3.21897 2.61531 3.32834 2.71761 3.34968 2.72508C3.37103 2.7336 3.3977 2.7581 3.42971 2.7986C3.46172 2.83804 3.56844 2.93235 3.74984 3.08153C3.93125 3.23071 4.16868 3.40388 4.46212 3.60102C4.75558 3.79815 5.08104 3.99263 5.43851 4.18444C5.796 4.37625 6.18015 4.54941 6.59097 4.70393C7.00181 4.85845 7.28992 4.95968 7.45532 5.00763C7.62073 5.05559 7.9035 5.11685 8.30366 5.19145C8.70382 5.26605 9.00528 5.314 9.20802 5.33531C9.41077 5.35662 9.5495 5.36888 9.62419 5.37207L9.73623 5.37527L9.73305 5.35129L9.72823 5.32732L9.69622 5.12752C9.67488 4.99432 9.6642 4.80783 9.6642 4.56807C9.6642 4.3283 9.68288 4.10719 9.72023 3.90472C9.75758 3.70224 9.81361 3.49712 9.88829 3.28932C9.96299 3.08153 10.0361 2.91475 10.1076 2.78901C10.1802 2.66434 10.2751 2.52208 10.3925 2.36223C10.5099 2.20239 10.6619 2.03723 10.8487 1.86672C11.0354 1.69622 11.2488 1.54437 11.4889 1.41117C11.729 1.27797 11.9505 1.17673 12.1532 1.10747C12.356 1.03821 12.5267 0.992908 12.6654 0.971601C12.8041 0.950294 12.8735 0.938034 12.8735 0.934837Z" fill="#F95F9F"/>
</svg>
