<svg width="21" height="20" viewBox="0 0 21 20" fill="none" xmlns="http://www.w3.org/2000/svg">
<path d="M10.8447 1.32422C12.8063 1.32422 14.6876 2.10347 16.0747 3.49054C17.4618 4.87762 18.241 6.75889 18.241 8.72051C18.241 12.2547 15.8557 15.5078 11.1751 18.4861C11.0763 18.5488 10.9617 18.5821 10.8447 18.5821C10.7277 18.5821 10.6131 18.5488 10.5144 18.4861C5.83374 15.5078 3.44844 12.2547 3.44844 8.72051C3.44844 6.75889 4.22769 4.87762 5.61476 3.49054C7.00184 2.10347 8.88311 1.32422 10.8447 1.32422ZM10.8447 6.25508C10.1909 6.25508 9.56377 6.51483 9.10141 6.97719C8.63905 7.43955 8.3793 8.06664 8.3793 8.72051C8.3793 9.37438 8.63905 10.0015 9.10141 10.4638C9.56377 10.9262 10.1909 11.1859 10.8447 11.1859C11.4986 11.1859 12.1257 10.9262 12.5881 10.4638C13.0504 10.0015 13.3102 9.37438 13.3102 8.72051C13.3102 8.06664 13.0504 7.43955 12.5881 6.97719C12.1257 6.51483 11.4986 6.25508 10.8447 6.25508Z" fill="white"/>
</svg>
